<svg width="20.000000" height="20.000000" viewBox="0 0 20 20" fill="none" xmlns="http://www.w3.org/2000/svg" xmlns:xlink="http://www.w3.org/1999/xlink">
	<desc>
			Created with Pixso.
	</desc>
	<defs>
		<clipPath id="clip1_478">
			<rect id="Icon" rx="0.000000" width="18.000000" height="18.000000" transform="translate(1.000000 1.000000)" fill="white" fill-opacity="0"/>
		</clipPath>
	</defs>
	<g clip-path="url(#clip1_478)">
		<path id="Icon" d="M7.8 2.74C8.05 2.99 8.11 3.38 7.95 3.7C7.53 4.54 7.29 5.49 7.29 6.49C7.29 9.92 10.07 12.7 13.5 12.7C14.5 12.7 15.45 12.46 16.29 12.04C16.61 11.88 17 11.94 17.25 12.19C17.51 12.45 17.57 12.84 17.41 13.16C16.11 15.73 13.45 17.5 10.37 17.5C6.02 17.5 2.5 13.97 2.5 9.62C2.5 6.54 4.26 3.88 6.83 2.58C7.15 2.42 7.54 2.48 7.8 2.74ZM5.68 5.55C4.73 6.64 4.16 8.07 4.16 9.62C4.16 13.05 6.94 15.83 10.37 15.83C11.92 15.83 13.35 15.26 14.44 14.31C14.13 14.35 13.82 14.37 13.5 14.37C9.15 14.37 5.62 10.84 5.62 6.49C5.62 6.17 5.64 5.86 5.68 5.55Z" fill="#FFFFFF" fill-opacity="1.000000" fill-rule="nonzero"/>
	</g>
</svg>
