<svg width="22.000000" height="22.000000" viewBox="0 0 22 22" fill="none" xmlns="http://www.w3.org/2000/svg" xmlns:xlink="http://www.w3.org/1999/xlink">
	<desc>
			Created with Pixso.
	</desc>
	<defs>
		<clipPath id="clip1_461">
			<rect id="Icon" rx="0.000000" width="20.000000" height="20.000000" transform="translate(1.000000 1.000000)" fill="white" fill-opacity="0"/>
		</clipPath>
	</defs>
	<g opacity="0.500000">
		<g clip-path="url(#clip1_461)">
			<path id="Icon" d="M8.25 1.83C8.75 1.83 9.16 2.24 9.16 2.75L9.16 3.66L12.83 3.66L12.83 2.75C12.83 2.24 13.24 1.83 13.75 1.83C14.25 1.83 14.66 2.24 14.66 2.75L14.66 3.66L17.41 3.66C18.42 3.66 19.25 4.48 19.25 5.5L19.25 17.41C19.25 18.42 18.42 19.25 17.41 19.25L4.58 19.25C3.57 19.25 2.75 18.42 2.75 17.41L2.75 5.5C2.75 4.48 3.57 3.66 4.58 3.66L7.33 3.66L7.33 2.75C7.33 2.24 7.74 1.83 8.25 1.83ZM7.33 5.5L4.58 5.5L4.58 8.25L17.41 8.25L17.41 5.5L14.66 5.5L14.66 6.41C14.66 6.92 14.25 7.33 13.75 7.33C13.24 7.33 12.83 6.92 12.83 6.41L12.83 5.5L9.16 5.5L9.16 6.41C9.16 6.92 8.75 7.33 8.25 7.33C7.74 7.33 7.33 6.92 7.33 6.41L7.33 5.5ZM17.41 10.08L4.58 10.08L4.58 17.41L17.41 17.41L17.41 10.08Z" fill="#FFFFFF" fill-opacity="1.000000" fill-rule="nonzero"/>
		</g>
	</g>
</svg>
