<svg width="18.000000" height="18.000000" viewBox="0 0 18 18" fill="none" xmlns="http://www.w3.org/2000/svg" xmlns:xlink="http://www.w3.org/1999/xlink">
	<desc>
			Created with Pixso.
	</desc>
	<defs>
		<clipPath id="clip1_451">
			<rect id="Icon" rx="0.000000" width="16.000000" height="16.000000" transform="translate(1.000000 1.000000)" fill="white" fill-opacity="0"/>
		</clipPath>
	</defs>
	<g clip-path="url(#clip1_451)">
		<path id="Icon" d="M15.75 3.75C15.75 2.92 15.07 2.25 14.25 2.25L3.75 2.25C2.92 2.25 2.25 2.92 2.25 3.75L2.25 6.75C2.25 7.57 2.92 8.25 3.75 8.25L14.25 8.25C15.07 8.25 15.75 7.57 15.75 6.75L15.75 3.75ZM14.25 3.75L14.25 6.75L3.75 6.75L3.75 3.75L14.25 3.75ZM15.75 11.25C15.75 10.42 15.07 9.75 14.25 9.75L3.75 9.75C2.92 9.75 2.25 10.42 2.25 11.25L2.25 14.25C2.25 15.07 2.92 15.75 3.75 15.75L14.25 15.75C15.07 15.75 15.75 15.07 15.75 14.25L15.75 11.25ZM14.25 11.25L14.25 14.25L3.75 14.25L3.75 11.25L14.25 11.25Z" fill="#FFFFFF" fill-opacity="1.000000" fill-rule="evenodd"/>
	</g>
</svg>
