<svg width="20.000000" height="20.000000" viewBox="0 0 20 20" fill="none" xmlns="http://www.w3.org/2000/svg" xmlns:xlink="http://www.w3.org/1999/xlink">
	<desc>
			Created with Pixso.
	</desc>
	<defs>
		<clipPath id="clip1_484">
			<rect id="Icon" rx="0.000000" width="18.000000" height="18.000000" transform="translate(1.000000 1.000000)" fill="white" fill-opacity="0"/>
		</clipPath>
	</defs>
	<g opacity="0.500000">
		<g clip-path="url(#clip1_484)">
			<path id="Icon" d="M10 1.66C10.46 1.66 10.83 2.03 10.83 2.5L10.83 3.33C10.83 3.79 10.46 4.16 10 4.16C9.53 4.16 9.16 3.79 9.16 3.33L9.16 2.5C9.16 2.03 9.53 1.66 10 1.66ZM15.89 4.1C16.21 4.43 16.21 4.96 15.89 5.28L15.3 5.87C14.97 6.2 14.45 6.2 14.12 5.87C13.79 5.54 13.79 5.02 14.12 4.69L14.71 4.1C15.03 3.78 15.56 3.78 15.89 4.1ZM4.1 4.1C4.43 3.78 4.96 3.78 5.28 4.1L5.87 4.69C6.2 5.02 6.2 5.54 5.87 5.87C5.54 6.2 5.02 6.2 4.69 5.87L4.1 5.28C3.78 4.96 3.78 4.43 4.1 4.1ZM10 6.66C8.15 6.66 6.66 8.15 6.66 10C6.66 11.84 8.15 13.33 10 13.33C11.84 13.33 13.33 11.84 13.33 10C13.33 8.15 11.84 6.66 10 6.66ZM5 10C5 7.23 7.23 5 10 5C12.76 5 15 7.23 15 10C15 12.76 12.76 15 10 15C7.23 15 5 12.76 5 10ZM1.66 10C1.66 9.53 2.03 9.16 2.5 9.16L3.33 9.16C3.79 9.16 4.16 9.53 4.16 10C4.16 10.46 3.79 10.83 3.33 10.83L2.5 10.83C2.03 10.83 1.66 10.46 1.66 10ZM15.83 10C15.83 9.53 16.2 9.16 16.66 9.16L17.5 9.16C17.96 9.16 18.33 9.53 18.33 10C18.33 10.46 17.96 10.83 17.5 10.83L16.66 10.83C16.2 10.83 15.83 10.46 15.83 10ZM4.69 14.12C5.02 13.79 5.54 13.79 5.87 14.12C6.2 14.45 6.2 14.97 5.87 15.3L5.28 15.89C4.96 16.21 4.43 16.21 4.1 15.89C3.78 15.56 3.78 15.03 4.1 14.71L4.69 14.12ZM14.12 15.3C13.79 14.97 13.79 14.45 14.12 14.12C14.45 13.79 14.97 13.79 15.3 14.12L15.89 14.71C16.21 15.03 16.21 15.56 15.89 15.89C15.56 16.21 15.03 16.21 14.71 15.89L14.12 15.3ZM10 15.83C10.46 15.83 10.83 16.2 10.83 16.66L10.83 17.5C10.83 17.96 10.46 18.33 10 18.33C9.53 18.33 9.16 17.96 9.16 17.5L9.16 16.66C9.16 16.2 9.53 15.83 10 15.83Z" fill="#FFFFFF" fill-opacity="1.000000" fill-rule="nonzero"/>
		</g>
	</g>
</svg>
