<svg width="22.000000" height="22.000000" viewBox="0 0 22 22" fill="none" xmlns="http://www.w3.org/2000/svg" xmlns:xlink="http://www.w3.org/1999/xlink">
	<desc>
			Created with Pixso.
	</desc>
	<defs>
		<clipPath id="clip0_465">
			<rect id="Icon" rx="0.000000" width="20.000000" height="20.000000" transform="translate(1.000000 1.000000)" fill="white" fill-opacity="0"/>
		</clipPath>
	</defs>
	<g clip-path="url(#clip0_465)">
		<path id="Icon" d="M9.3 2.97C9.57 2.3 10.23 1.83 11 1.83C11.76 1.83 12.42 2.3 12.69 2.97C15.41 3.72 17.41 6.21 17.41 9.16L17.41 13.47L19.09 15.99C19.28 16.27 19.3 16.63 19.14 16.93C18.98 17.23 18.67 17.41 18.33 17.41L14.17 17.41C13.95 18.97 12.61 20.16 11 20.16C9.38 20.16 8.04 18.97 7.82 17.41L3.66 17.41C3.32 17.41 3.01 17.23 2.85 16.93C2.69 16.63 2.71 16.27 2.9 15.99L4.58 13.47L4.58 9.16C4.58 6.21 6.58 3.72 9.3 2.97ZM9.7 17.41C9.89 17.95 10.4 18.33 11 18.33C11.59 18.33 12.1 17.95 12.29 17.41L9.7 17.41ZM11 4.58C8.46 4.58 6.41 6.63 6.41 9.16L6.41 13.75C6.41 13.93 6.36 14.1 6.26 14.25L5.37 15.58L16.62 15.58L15.73 14.25C15.63 14.1 15.58 13.93 15.58 13.75L15.58 9.16C15.58 6.63 13.53 4.58 11 4.58Z" fill="#1C1D22" fill-opacity="1.000000" fill-rule="nonzero"/>
	</g>
	<circle id="Badge" cx="17.000000" cy="5.000000" r="3.000000" fill="#FFA048" fill-opacity="1.000000"/>
	<circle id="Badge" cx="17.000000" cy="5.000000" r="3.500000" stroke="#FFFFFF" stroke-opacity="1.000000" stroke-width="1.000000"/>
</svg>
