<svg width="10.666687" height="8.000000" viewBox="0 0 10.6667 8" fill="none" xmlns="http://www.w3.org/2000/svg" xmlns:xlink="http://www.w3.org/1999/xlink">
	<desc>
			Created with Pixso.
	</desc>
	<defs/>
	<path id="Icon" d="M0 0.66C0 0.29 0.29 0 0.66 0L1.33 0C1.7 0 2 0.29 2 0.66C2 1.03 1.7 1.33 1.33 1.33L0.66 1.33C0.29 1.33 0 1.03 0 0.66ZM3.33 0.66C3.33 0.29 3.63 0 4 0L10 0C10.36 0 10.66 0.29 10.66 0.66C10.66 1.03 10.36 1.33 10 1.33L4 1.33C3.63 1.33 3.33 1.03 3.33 0.66ZM0 4C0 3.63 0.29 3.33 0.66 3.33L1.33 3.33C1.7 3.33 2 3.63 2 4C2 4.36 1.7 4.66 1.33 4.66L0.66 4.66C0.29 4.66 0 4.36 0 4ZM3.33 4C3.33 3.63 3.63 3.33 4 3.33L10 3.33C10.36 3.33 10.66 3.63 10.66 4C10.66 4.36 10.36 4.66 10 4.66L4 4.66C3.63 4.66 3.33 4.36 3.33 4ZM0 7.33C0 6.96 0.29 6.66 0.66 6.66L1.33 6.66C1.7 6.66 2 6.96 2 7.33C2 7.7 1.7 8 1.33 8L0.66 8C0.29 8 0 7.7 0 7.33ZM3.33 7.33C3.33 6.96 3.63 6.66 4 6.66L10 6.66C10.36 6.66 10.66 6.96 10.66 7.33C10.66 7.7 10.36 8 10 8L4 8C3.63 8 3.33 7.7 3.33 7.33Z" fill="#FFFFFF" fill-opacity="1.000000" fill-rule="nonzero"/>
</svg>
